<?xml version="1.0" encoding="UTF-8"?>
<svg id="_レイヤー_1" data-name="レイヤー 1" xmlns="http://www.w3.org/2000/svg" viewBox="0 0 194.88 57.03">
  <defs>
    <style>
      .cls-1 {
        fill: #004626;
      }

      .cls-2 {
        fill: #004525;
      }
    </style>
  </defs>
  <g>
    <path class="cls-2" d="M47.15.45l.17-.19.5.04.48.02.15.17.17.15h1c.56,0,.88,0,.97-.02.09,0,.17-.07.24-.19l.09-.11h.86c.45,0,.71,0,.79.02s.16.07.23.19l.09.13.24-.02c.11,0,.18,0,.21-.03.03-.02.08-.06.14-.12l.13-.15,3.37.02c2.23,0,3.36.03,3.39.06s.05.16.07.38c0,.19,0,.31-.03.37-.02.06-.06.1-.12.11s-.12.07-.19.17c-.06.07-.11.12-.13.13s-.09.02-.19.02-.16,0-.19-.02c-.02,0-.06-.05-.11-.11-.07-.1-.12-.15-.15-.17-.03,0-.22-.02-.58-.04h-.56l-.06.07s-.06.37-.07.97c0,.6-.02,2.41-.04,5.43l-.02,4.13.09.09.07.07,1.02.02c.68,0,1.04.02,1.09.07.04.05.06.13.06.25s.03.2.08.24c.06.04.1.07.14.08.07.02.11.07.09.14,0,.07-.06.11-.13.14-.06.04-.13.1-.2.19l-.11.13-2.77-.04c-1.86-.01-2.93-.02-3.2-.02l-.41.02-.09-.15c-.15-.25-.29-.25-.43,0l-.09.15-3.16-.02c-2.12-.02-3.2-.05-3.25-.08s-.07-.16-.07-.4c0-.26.03-.41.1-.44s.36-.03.88,0l.82.02.17-.19c.12-.11.22-.19.28-.24l.09-.07v-.87c0-.6.02-2.23.04-4.89l.02-4.02-.07-.06c-.15-.15-.27-.27-.35-.35l-.07-.09h-.86c-.57,0-.88-.02-.92-.06s-.06-.17-.06-.4.02-.36.07-.4c.05-.04.14-.12.26-.24h.02ZM52.12,6.77l-.13-.15h-.5l-.07.13c-.06.09-.13.14-.2.17s-.11.07-.14.14c-.03.07-.04.88-.06,2.43v2.32l.07.07c.17.15.28.27.33.35l.07.09.39-.02.41-.02.07-.13c.12-.21.25-.21.37,0l.07.13.28.04c.19.01.59.02,1.23.02h.83c.08,0,.14-.03.18-.06.14-.15.25-.27.35-.35l.09-.06v-2.03l.02-1.02.17-.17.17-.17v-.52c0-.29,0-.47-.03-.55-.02-.08-.07-.13-.16-.14-.05-.01-.1-.06-.15-.15-.07-.11-.18-.17-.31-.19-.13-.01-.66-.02-1.59-.02h-1.67l-.11-.15h.02ZM53.51,1.1c-.07-.1-.15-.15-.21-.16-.07,0-.14.05-.21.16l-.09.15h-1.43l-.11.15c-.06.1-.12.16-.17.17s-.1.04-.14.08c-.04.04-.07.75-.08,2.11v2.05l.09.07c.05.06.13.14.24.24.07.07.13.12.16.14s.1.03.21.03c.16,0,.27-.03.32-.09,0-.01,0-.03.04-.06.06-.07.15-.12.26-.13s.48-.01,1.1,0h.41c1.1.01,1.68,0,1.74,0s.11-.07.17-.16c.06-.09.11-.14.18-.17.06-.02.11-.06.14-.12s.05-.35.06-.89,0-.83-.03-.88c-.02-.05-.08-.11-.17-.19l-.13-.11V1.41l-.07-.09-.07-.07h-2.08l-.09-.15h-.04Z"/>
    <path class="cls-2" d="M62.99,5.14c.07-.04.15-.12.22-.22s.15-.15.23-.13.58.03,1.5.03h1.38l.07.07c.12.15.2.23.24.25.04.02.1.02.19,0,.11-.01.19.01.24.07s.11.12.17.19c.06.06.11.11.15.15s.12.11.24.22l.17.19-.02,1.08v3.66s.02.06.07.09c.14.09.25.04.33-.13.04-.09.09-.15.17-.19.15-.07.21-.19.19-.33s0-.23.09-.28c.02-.01.1-.02.22-.02.11,0,.18.02.21.05.03.03.05.11.05.24s.03.22.08.28.1.08.13.08.07.03.1.1c.04.07.06.14.06.21,0,.06-.06.15-.19.27s-.19.24-.19.35-.02.2-.07.26-.09.08-.11.08c-.11,0-.17.11-.17.33,0,.14-.04.23-.12.29s-.14.12-.19.2c-.04.07-.1.13-.17.16-.07.03-.13.09-.2.18l-.07.15h-1.08l-.09-.15c-.07-.09-.14-.15-.2-.2s-.12-.1-.17-.18c-.05-.07-.09-.12-.12-.13s-.17-.02-.42-.02h-.35l-.09.09c-.06.07-.11.13-.14.18-.03.04-.11.06-.23.06-.1,0-.16,0-.19.02-.03.01-.08.06-.14.13l-.13.17-.87-.02c-.57,0-.87-.02-.9-.07-.03-.05-.21-.24-.55-.58l-.48-.48v-1c0-.66.02-1.01.07-1.06s.09-.08.12-.1.07-.06.13-.13.11-.12.18-.16c.06-.04.12-.1.18-.19s.15-.13.27-.13c.17,0,.3-.06.39-.19.05-.07.1-.12.15-.15.05-.02.11-.09.19-.19l.11-.15h.74l.07-.11c.06-.07.11-.13.14-.17s.23-.06.59-.06c.28,0,.46,0,.51-.03s.12-.07.2-.16c.05-.07.1-.12.15-.15.07-.02.12-.08.15-.18.02-.09.04-.33.04-.7,0-.47,0-.72-.02-.75s-.06-.06-.13-.09-.14-.09-.2-.18c-.06-.09-.1-.14-.13-.15s-.28-.02-.73-.04l-.71-.02-.07.09s-.08.09-.08.15v1.28l-.26.26c-.16.16-.25.24-.28.24s-.07.06-.13.17l-.11.15h-.2c-.11,0-.18,0-.2-.02-.02-.01-.06-.06-.09-.13-.06-.09-.12-.14-.18-.17-.06-.02-.11-.08-.17-.16s-.12-.14-.19-.18-.11-.07-.13-.11-.02-.28,0-.73l.02-.67.11-.07c.07-.05.14-.12.2-.2.06-.09.12-.14.18-.17.06-.02.1-.07.14-.14.04-.07.09-.12.17-.17l-.04.07ZM65.79,8.89c-.07-.1-.13-.15-.19-.15h-.18c-.11-.02-.22.03-.33.17l-.11.17h-.43l-.11.17c-.09.11-.15.17-.19.19-.04.01-.08.06-.14.14s-.11.13-.18.16c-.09.05-.14.12-.16.22s-.03.38-.05.84c0,.46,0,.73.03.82.02.09.07.16.16.2.06.02.12.08.17.17.07.15.17.2.28.17.02-.01.07-.07.13-.17l.07-.15h.22l.22-.02.11-.17.13-.17h.2c.15,0,.24-.02.29-.06s.07-.12.07-.26c0-.17.06-.29.17-.33.07-.04.12-.08.15-.14s.04-.3.06-.73c0-.37,0-.6-.03-.68s-.07-.15-.16-.2c-.07-.02-.15-.09-.21-.19h0Z"/>
    <path class="cls-2" d="M70.6,5.17s.38-.06,1.06-.06c.57,0,.89,0,.95.02.06.01.15.09.26.22.06.06.21.1.46.1h.4s.06-.05.11-.12c.05-.07.08-.12.1-.15s.42-.05,1.22-.05c.63,0,1,0,1.11.03.1.02.18.07.23.16.02.06.07.11.14.14.07.03.13.09.19.18.06.09.11.14.15.16s.11.08.19.19.14.16.17.16.07.03.1.08.05.21.04.46c0,.25-.02.98-.02,2.17v1.8l.07.07s.09.07.11.07.06.03.09.07c.04.05.05.19.04.41,0,.19,0,.31,0,.37.02.06.07.11.16.15.06.02.12.08.18.16s.11.14.16.18c.12.06.19.16.19.3,0,.11-.02.19-.07.22-.16.14-.27.25-.33.33-.04.04-.1.06-.18.07h-.77c-.59-.01-1-.02-1.21-.02h-.32l-.07-.15c-.06-.1-.11-.15-.13-.17-.02-.01-.11-.01-.24,0-.14.01-.22,0-.26-.06-.07-.09-.04-.17.11-.24.07-.04.14-.1.2-.18s.1-.12.13-.12.07-.03.13-.08c.06-.06.08-.13.08-.23,0-.14,0-.22,0-.25s.06-.06.13-.1.13-.07.17-.11c.04-.05.06-1.15.06-3.29,0-.99,0-1.51-.02-1.56-.02-.05-.07-.09-.13-.11s-.14-.09-.22-.19l-.11-.15-.5-.02c-.32,0-.51,0-.56.02-.05.01-.11.06-.17.15s-.12.14-.17.17c-.05.02-.1.08-.16.17s-.12.14-.2.17c-.15.05-.21.23-.19.54.02.29-.03.44-.17.46-.09.02-.14.13-.15.32,0,.19-.02.82-.04,1.92v1.78c0,.18.03.29.06.33.04.05.1.08.19.08h.22c.06,0,.13.05.2.15.07.1.12.15.15.15s.07.03.12.09c.11.15.11.29,0,.43l-.07.09h-1.51c-.99-.01-1.51-.04-1.56-.07-.05-.04-.07-.16-.07-.37,0-.29.05-.45.15-.5.06-.02.12-.07.17-.15.05-.07.11-.14.2-.2.08-.06.13-.09.15-.11s.03-.86.05-2.53c0-1.67,0-2.53,0-2.59-.02-.06-.08-.11-.16-.15s-.14-.09-.19-.17-.1-.13-.16-.17-.12-.1-.18-.18-.11-.14-.18-.18c-.09-.04-.14-.11-.16-.23s0-.21.08-.29h0Z"/>
    <path class="cls-2" d="M81.4,5.14c.07-.04.15-.12.22-.22s.15-.15.23-.13.58.03,1.5.03h1.38l.07.07c.12.15.21.23.24.25s.1.02.19,0c.11-.01.19.01.24.07s.1.12.17.19c.06.06.11.11.15.15s.12.11.24.22l.17.19-.02,1.08v3.66s.02.06.07.09c.14.09.25.04.33-.13.04-.09.09-.15.17-.19.15-.07.21-.19.19-.33-.03-.14,0-.23.09-.28.02-.01.1-.02.22-.02.11,0,.18.02.21.05.03.03.04.11.04.24s.03.22.08.28c.06.06.1.08.13.08s.06.03.1.1c.04.07.06.14.06.21,0,.06-.06.15-.19.27-.12.12-.19.24-.19.35s-.02.2-.07.26-.09.08-.11.08c-.11,0-.17.11-.17.33,0,.14-.04.23-.12.29s-.14.12-.19.2c-.04.07-.1.13-.17.16-.07.03-.13.09-.2.18l-.07.15h-1.08l-.09-.15c-.07-.09-.14-.15-.21-.2s-.12-.1-.17-.18c-.05-.07-.09-.12-.12-.13s-.17-.02-.42-.02h-.35l-.09.09c-.06.07-.11.13-.14.18s-.11.06-.23.06c-.1,0-.16,0-.19.02-.03.01-.08.06-.14.13l-.13.17-.87-.02c-.57,0-.87-.02-.9-.07-.03-.05-.21-.24-.55-.58l-.48-.48v-1c0-.66.02-1.01.07-1.06.05-.05.09-.08.12-.1s.07-.06.13-.13.12-.12.18-.16.12-.1.18-.19.15-.13.27-.13c.17,0,.3-.06.39-.19.05-.07.1-.12.15-.15.05-.02.11-.09.19-.19l.11-.15h.74l.07-.11c.06-.07.11-.13.14-.17s.23-.06.59-.06c.29,0,.46,0,.51-.03.05-.02.12-.07.2-.16.05-.07.1-.12.15-.15.07-.02.12-.08.15-.18.03-.09.04-.33.04-.7,0-.47,0-.72-.02-.75,0-.03-.06-.06-.13-.09s-.14-.09-.2-.18c-.06-.09-.1-.14-.13-.15s-.28-.02-.73-.04l-.71-.02-.08.09s-.08.09-.08.15v1.28l-.26.26c-.16.16-.25.24-.28.24s-.07.06-.13.17l-.11.15h-.21c-.11,0-.18,0-.2-.02-.03-.01-.06-.06-.09-.13-.06-.09-.12-.14-.18-.17-.06-.02-.11-.08-.17-.16s-.12-.14-.19-.18-.11-.07-.13-.11-.02-.28,0-.73l.02-.67.11-.07c.07-.05.14-.12.21-.2.06-.09.12-.14.18-.17.06-.02.1-.07.14-.14.04-.07.09-.12.17-.17v.07ZM84.2,8.89c-.07-.1-.13-.15-.19-.15h-.18c-.11-.02-.22.03-.34.17l-.11.17h-.43l-.11.17c-.09.11-.15.17-.19.19-.04.01-.08.06-.14.14s-.12.13-.18.16c-.09.05-.14.12-.16.22s-.03.38-.05.84c0,.46,0,.73.03.82.02.09.07.16.16.2.06.02.12.08.17.17.07.15.17.2.28.17.02-.01.07-.07.13-.17l.07-.15h.22l.22-.02.11-.17.13-.17h.21c.15,0,.24-.02.29-.06.04-.04.07-.12.07-.26,0-.17.05-.29.17-.33.07-.04.12-.08.15-.14.02-.06.04-.3.05-.73,0-.37,0-.6-.03-.68-.02-.08-.07-.15-.16-.2-.07-.02-.15-.09-.21-.19h.02Z"/>
    <path class="cls-2" d="M98.9.13l.09-.13h2.03l.06.07c.07.11.13.18.17.2.04.03.11.04.22.04.11,0,.18.02.21.04.02,0,.06.06.11.13.06.09.12.14.17.16s.11.08.19.18l.09.15h.78l.11-.13c.06-.09.12-.15.19-.19.06-.04.12-.09.17-.17.05-.07.09-.12.11-.14.02-.02.15-.02.38,0s.36.04.39.07.04.33.03.89l-.02.84.17.15.17.15v1.64c0,1.09-.02,1.65-.04,1.68,0,.03-.04.06-.09.07s-.11.07-.17.16c-.11.17-.21.2-.3.07-.04-.05-.16-.18-.35-.39l-.3-.3.02-.8c0-.45,0-.72-.02-.82,0-.1-.07-.17-.17-.2-.14-.06-.19-.17-.16-.33.03-.16-.03-.27-.18-.34-.11-.06-.16-.17-.15-.33,0-.1,0-.18-.05-.24-.04-.06-.08-.09-.11-.09s-.09-.05-.17-.16c-.08-.1-.14-.16-.18-.18-.04,0-.09-.07-.17-.17l-.09-.15h-.43l-.11-.17c-.09-.1-.18-.15-.27-.16s-.16,0-.2,0-.1-.05-.16-.14-.12-.15-.18-.18c-.06-.02-.19-.04-.4-.04s-.33.02-.36.05c-.03.03-.08.08-.14.16l-.09.13h-.5c-.33,0-.52,0-.57.03-.04.02-.08.06-.12.13s-.09.12-.17.17-.13.11-.18.19c-.04.08-.1.13-.18.14-.12.05-.18.22-.17.52l.04.3-.11.09c-.07.07-.14.13-.2.18-.06.04-.08.23-.07.57v.52l-.09.07c-.06.05-.12.09-.17.13-.04.04-.06.16-.07.36,0,.2-.02.88-.03,2.02v2.17c0,.19.05.3.14.33h.02c.07.04.12.09.14.17.02.07.02.29,0,.65,0,.38,0,.61.02.67s.08.12.21.19c.06.04.09.13.09.28s.03.25.08.3c.06.05.15.07.29.07.1,0,.16,0,.19.02.02.01.06.06.11.13.06.09.12.15.19.19.06.04.11.09.15.15.06.09.14.14.24.15.1.01.46.02,1.08.04.77,0,1.17,0,1.21-.03s.09-.07.15-.16c.05-.07.09-.12.11-.13.03-.01.09-.02.19-.02h.2l.26-.26c.16-.19.24-.29.24-.31s.04-.05.12-.08c.08-.04.12-.06.12-.08s.09-.12.27-.3c.18-.18.29-.28.33-.29.07-.04.12-.1.13-.18,0-.08.02-.24.02-.49,0-.31,0-.49.05-.55.04-.06.08-.08.11-.08s.07-.03.11-.09.06-.25.06-.57,0-.49.02-.53.06-.07.12-.1.12-.09.19-.18c.04-.07.07-.11.1-.12h.39s.06.05.11.12c.06.09.13.15.21.19l.11.06v1.38l-.17.15c-.09.07-.14.13-.15.16s-.02.09-.02.18c0,.16-.06.27-.17.32-.12.05-.18.21-.17.48.03.29,0,.43-.07.43-.02,0-.1.07-.22.2s-.21.21-.24.24c-.04.03-.09.08-.17.16s-.14.14-.21.19c-.06.05-.09.13-.07.24,0,.14-.02.23-.06.27-.04.04-.12.07-.24.07-.15,0-.25.04-.3.11-.09.1-.15.16-.18.18s-.1.03-.21.03c-.09,0-.15,0-.18.03s-.08.06-.16.14l-.13.17-.19-.02c-.12-.01-.21,0-.25.07-.04.06-.08.11-.12.18l-.07.07h-2.33l-.15-.17c-.1-.11-.21-.17-.33-.17s-.23-.06-.33-.17c-.08-.07-.13-.12-.16-.13s-.09-.02-.18-.02h-.19l-.13-.17-.11-.17h-.41l-.22-.24c-.1-.12-.16-.2-.18-.24s-.03-.1-.03-.19c0-.21-.05-.32-.15-.32-.03,0-.06-.02-.11-.07-.05-.05-.07-.13-.07-.24s0-.19-.03-.22c-.02-.04-.07-.07-.14-.11-.09-.05-.14-.09-.15-.12s0-.15,0-.36,0-.35-.05-.41c-.04-.06-.08-.09-.11-.09s-.07-.02-.1-.07c-.04-.04-.06-.39-.06-1.05,0-.52,0-.84,0-.96-.02-.12-.07-.19-.15-.22-.08-.03-.13-.08-.15-.14s-.02-.22,0-.48c0-.29,0-.45.02-.48,0-.04.09-.11.22-.22l.09-.07v-1.17c0-.79.02-1.2.04-1.23,0-.02.06-.05.13-.07.09-.04.14-.09.16-.15.02-.06.02-.17,0-.33,0-.29.04-.45.15-.48.12-.06.19-.18.19-.35,0-.2.06-.3.17-.3.04,0,.07-.04.11-.11s.06-.15.06-.24c0-.12.03-.21.09-.26.1-.09.2-.19.3-.3.04-.05.12-.07.26-.07.1,0,.16,0,.19-.02s.07-.06.13-.13c.06-.1.11-.15.15-.17.04,0,.1-.07.19-.17l.11-.15h.33c.21,0,.34,0,.39-.03s.11-.07.17-.16l.03-.07Z"/>
    <path class="cls-2" d="M111.81.67c.04-.06.07-.1.1-.11s.09-.02.19-.02.16,0,.19.02c.03,0,.07.05.12.11.06.1.13.17.21.22.07.05.11.14.11.28,0,.11,0,.19.04.22.02.04.1.1.22.19.04.04.06.07.06.1v.27c0,.31.05.5.19.58.07.04.12.07.14.1s.02.21,0,.55c0,.27,0,.45,0,.52.02.07.07.13.16.17.09.03.14.05.15.08s.02.16.02.4c0,.2,0,.32,0,.36.02.04.1.11.23.21.05.04.08.07.08.11v.33c0,.25,0,.39.06.44s.09.06.12.06.06.02.1.07c.04.04.05.24.04.59,0,.35,0,.55.06.6.05.06.09.08.13.08s.07.03.1.07c.03.05.04.19.03.43l-.02.35.09.06c.06.05.12.1.19.16.06.06.09.14.07.25,0,.11,0,.2.06.26.05.06.09.09.12.09s.07.02.1.06.06.29.06.73c0,.37,0,.6,0,.68.02.08.08.15.2.2.14.05.18.17.13.37-.09.31-.03.51.17.61.09.05.13.08.13.1s.06.09.19.22c.12.13.21.23.26.29l.07.09h1.39l.11.13c.06.09.12.15.19.18.06.03.1.07.1.13s-.03.11-.1.16-.14.11-.2.19c-.06.07-.11.12-.15.13s-.1.07-.16.17c-.11.2-.21.21-.3.04-.06-.11-.14-.18-.22-.2s-.45-.03-1.1-.03c-.77,0-1.56,0-2.38-.02l-1.23-.02-.07-.11c-.04-.07-.1-.13-.18-.17-.08-.04-.12-.09-.12-.16s.04-.12.11-.16.14-.1.2-.19l.09-.11h.54c.35,0,.55-.02.61-.07.06-.05.09-.19.09-.41,0-.35-.05-.55-.19-.6-.09-.04-.14-.08-.15-.13s0-.24,0-.58v-.48l-.09-.07s-.1-.09-.16-.13-.08-.12-.07-.24-.03-.22-.1-.3c-.14-.12-.24-.23-.32-.32-.06-.07-.16-.11-.29-.09-.13.01-.24.07-.33.17l-.15.15h-1.39l-.17.19c-.11.11-.2.19-.26.24s-.09.13-.07.24c.02.17-.03.29-.17.33-.07.03-.12.08-.14.18-.02.09-.03.32-.05.68,0,.45,0,.69.02.74,0,.05.06.1.15.14s.14.08.15.12.04.08.09.13.2.08.46.09.4.04.43.07c.02.04.04.16.04.38s-.02.35-.06.4l-.06.07-2.01-.02c-1.35-.02-2.04-.05-2.08-.08-.04-.03-.06-.16-.06-.4s.02-.37.06-.41.23-.05.57-.04l.52.02.07-.09c.05-.06.11-.12.19-.19.09-.1.19-.2.32-.32.06-.07.12-.13.19-.17.05-.04.08-.07.08-.11v-.3c0-.21,0-.34,0-.38s.06-.09.15-.14c.11-.05.17-.11.19-.2,0-.08,0-.29,0-.64,0-.43,0-.68.06-.73.05-.06.09-.08.12-.08s.07-.03.11-.09.06-.2.05-.43v-.33l.09-.09c.07-.06.14-.11.19-.16s.07-.24.07-.59c0-.3,0-.47.03-.53s.08-.1.18-.14c.06-.02.1-.06.12-.12.02-.06.02-.23,0-.51,0-.27,0-.44,0-.51.02-.07.06-.12.14-.16.16-.07.23-.19.2-.35s.02-.27.14-.32c.1-.04.16-.09.18-.17.02-.07.03-.24.03-.5,0-.32,0-.5,0-.55s.07-.08.14-.12c.09-.04.14-.09.16-.16.02-.07.03-.24.03-.53,0-.36.03-.56.08-.59.05-.04.09-.06.12-.06s.07-.03.1-.08.06-.19.06-.4c0-.2,0-.32,0-.37.02-.05.06-.09.12-.13.08-.04.14-.1.21-.19l.07.05ZM111.71,4.2c-.1-.1-.19-.11-.26-.02-.11.12-.23.24-.35.35-.05.05-.07.31-.07.77s-.02.72-.06.75c-.04.04-.08.06-.09.06s-.06.03-.11.08-.08.26-.08.61-.02.55-.06.58c-.04.03-.08.05-.1.05-.04,0-.07.03-.1.08s-.05.11-.05.16c0,.07.06.13.13.17.1.05.16.09.18.12s.02.1,0,.21c0,.15,0,.24.06.28.11.11.21.11.3-.02.1-.15.21-.23.33-.24.09-.01.15,0,.19.02s.11.1.21.22c.05.07.15.1.29.08s.26-.07.34-.17c.09-.09.15-.14.18-.14s.07-.03.12-.08c.05-.06.07-.21.07-.46,0-.21,0-.35-.03-.41s-.08-.11-.18-.15l-.11-.06v-.39c0-.22,0-.36-.03-.4-.02-.04-.1-.11-.23-.21l-.09-.06.02-.5c0-.33,0-.53-.02-.58-.03-.05-.07-.09-.13-.11-.14-.06-.19-.18-.17-.35,0-.12,0-.21-.07-.26l-.03.02Z"/>
    <path class="cls-2" d="M122.98.26c.14-.2.25-.22.33-.06.05.11.1.18.15.2.05.02.17.03.37.03h.37l.15-.17c.1-.11.21-.17.33-.17.07,0,.13,0,.16.03s.07.06.12.14l.13.17h.33c.22,0,.36.02.4,0,.04,0,.09-.06.15-.16s.11-.15.18-.15.12.05.19.15l.07.15.26.02c.17,0,.52.02,1.04.02s.8.02.85.06c.04.04.06.18.05.43v.35l.09.09s.05.03.07.04c.09.06.14.16.15.29s.02.55.02,1.27c0,.24-.02.43-.02.58v2.03s-.04.06-.13.12c-.09.06-.14.11-.17.18-.04.07-.08.12-.14.13s-.11-.01-.15-.07-.12-.14-.21-.22l-.13-.15.02-.67c0-.46,0-.71-.04-.75s-.08-.08-.15-.11c-.07-.03-.12-.06-.14-.1s-.02-.28,0-.73.02-.68,0-.71c-.04-.1-.17-.15-.39-.15-.12,0-.2-.02-.23-.06s-.05-.12-.05-.24c0-.14-.03-.22-.09-.26-.16-.15-.27-.27-.33-.35l-.06-.09h-1.02c-.68,0-1.04,0-1.07-.03s-.07-.07-.13-.17c-.06-.09-.11-.15-.16-.16-.07,0-.16,0-.27,0s-.18.05-.21.08l-.07.07-.02,2.16c0,1.45,0,2.2,0,2.26s.07.11.14.15.13.1.17.18c.05.1.12.15.21.15s.16-.06.22-.17c.05-.06.09-.1.11-.11s.09-.02.19-.02c.15,0,.25-.03.31-.1.06-.07.08-.11.08-.13s.04-.05.13-.1c.1-.05.16-.11.18-.18.02-.07.02-.24,0-.51,0-.32,0-.51.05-.57.04-.06.08-.08.11-.08s.07-.03.12-.08.07-.2.06-.43c0-.23,0-.36.06-.4.06-.06.15-.09.25-.09s.18.03.23.08c.05.06.07.14.06.25,0,.11,0,.2.06.26.05.06.09.09.12.09s.06.02.1.07c.04.05.06.24.06.58v.48l-.09.07c-.16.12-.25.24-.26.35-.04.22.02.37.19.45l.13.07v1.86c0,1.25-.02,1.9-.06,1.93s-.17.06-.39.06c-.26,0-.41-.03-.44-.08-.03-.06-.05-.29-.05-.72,0-.47,0-.73-.02-.77-.02-.04-.06-.07-.11-.08-.12-.04-.19-.15-.19-.33,0-.12-.03-.21-.08-.27s-.08-.08-.1-.08-.05-.02-.09-.06-.06-.12-.06-.26-.02-.23-.06-.27-.12-.07-.26-.08c-.11,0-.18,0-.21-.03s-.07-.06-.12-.14c-.07-.1-.15-.15-.22-.15s-.14.05-.21.15c-.06.1-.12.16-.17.17-.07.04-.12.08-.14.14s-.03.16-.03.33c0,.22,0,1.08-.02,2.57v2.23l.07.07c.06.05.43.07,1.1.07h1l.19.17c.11.12.19.2.24.24s.08.11.08.21-.03.18-.08.21c-.14.12-.25.25-.35.37-.04.04-.17.06-.39.06-.17,0-.28,0-.33-.03-.04-.02-.12-.09-.21-.21l-.08-.09-.5-.02c-.35-.01-.54,0-.58.02-.04.03-.09.08-.14.17-.12.19-.23.2-.32.04-.06-.11-.12-.18-.16-.2-.04-.02-.16-.04-.34-.04-.22,0-.35,0-.39.03s-.09.08-.15.18l-.09.15-1.21-.02h-1.19l-.09-.11c-.06-.09-.14-.15-.22-.2-.09-.05-.13-.09-.13-.13s.02-.08.06-.12.07-.06.09-.06c.04,0,.19-.13.45-.39l.22-.24.69.02c.42,0,.67-.01.74-.04.07-.02.1-.12.1-.3,0-.11,0-.19.03-.22s.07-.07.14-.11c.14-.07.2-.2.2-.39,0-.11-.04-.2-.11-.27-.07-.07-.13-.11-.18-.14-.04-.02-.06-.58-.06-1.66s.02-2.49.03-4.21l.02-2.57-.09-.09c-.06-.05-.12-.1-.17-.15-.05-.05-.07-.14-.07-.27s-.03-.22-.09-.26-.37-.06-.93-.06-.86-.02-.91-.06-.07-.18-.07-.42.02-.38.07-.42c.04-.04.63-.05,1.76-.04l1.67.02.13-.17v-.02Z"/>
    <path class="cls-2" d="M130.94.5s.17-.06.43-.06h2.58c1.96,0,3.52.02,4.69.04l1.75.02.07.13c.06.07.14.14.22.2l.13.09-.02.86-.02.84.07.11c.06.06.11.09.15.09.05,0,.08.06.09.2,0,.13.02.49.02,1.09v.19c0,.56,0,.88-.04.98-.03.09-.11.13-.24.12h-.04c-.14,0-.23-.04-.29-.13s-.12-.16-.2-.2l-.13-.07.02-.69c0-.37,0-.6,0-.69-.02-.09-.08-.15-.18-.19-.12-.06-.17-.17-.15-.33.02-.16-.04-.28-.19-.35-.07-.04-.12-.07-.13-.1,0-.03-.02-.11-.02-.23,0-.11,0-.19-.06-.22-.16-.14-.28-.25-.35-.35-.05-.06-.14-.09-.28-.09s-.22-.02-.26-.07c-.1-.14-.17-.21-.21-.23-.04-.02-.21-.03-.51-.03h-.54l-.07-.07c-.09-.12-.16-.2-.2-.22-.05-.02-.22-.04-.52-.06l-.52-.02-.17.19c-.11.12-.18.19-.21.19s-.06.03-.1.07c-.04.05-.07.81-.08,2.29v2.21l.07.07s.11.09.17.13c.09.06.12.16.11.29s-.07.22-.19.27c-.07.04-.12.08-.15.13s-.04.87-.04,2.45v2.38l.13.07c.07.06.15.14.22.22l.09.15h1.21l1.21.02.09-.09c.05-.06.09-.12.13-.17.04-.05.17-.07.41-.07l.37.02.17-.19c.12-.11.22-.19.28-.24s.09-.14.09-.26.05-.23.16-.33c.1-.09.16-.17.18-.24,0-.07,0-.24,0-.52s0-.44.02-.47c.02-.04.08-.08.17-.12s.14-.08.15-.12.02-.28,0-.73c0-.45,0-.7.03-.73.03-.04.11-.06.26-.06h.2l.11.17c.09.11.15.17.2.19.04.01.07.04.08.09s.02.33.02.85,0,.8-.02.85c0,.04-.06.08-.15.13-.07.05-.12.09-.14.13s-.03.12-.03.24c0,.11,0,.19.04.22.02.04.09.11.2.2l.11.07-.02.65c0,.52-.04.78-.11.78-.04,0-.09.03-.15.08-.06.06-.09.15-.09.27,0,.02,0,.06.02.09,0,.1-.05.16-.19.19-.2.04-1.25.05-3.14.04h-.19l-.02-.02h-1.12c-3.04-.01-4.57,0-4.61.04-.11.15-.18.23-.21.25-.03.02-.09.03-.18.03-.11,0-.19-.03-.24-.08-.05-.06-.07-.09-.07-.11s-.04-.06-.13-.11c-.09-.06-.14-.11-.17-.18-.05-.09-.06-.17-.03-.26s.08-.15.16-.19c.06-.02.12-.09.19-.19l.11-.15h.85l.87.02.08-.07c.06-.06.1-.11.11-.15s.06-.08.15-.12.14-.08.15-.1c.02-.04.05-2.09.07-6.15l.02-4-.07-.07s-.09-.06-.16-.07c-.07,0-.28-.02-.64-.02h-.73l-.09.11c-.06.07-.11.13-.14.17s-.16.06-.38.06c-.24,0-.37-.02-.41-.07-.04-.04-.06-.23-.06-.55,0-.35.02-.54.07-.58l.05-.05ZM137.59,3.85s.12-.1.23-.21c.11-.12.22-.18.33-.18s.18.02.23.07l.07.06-.02,1.93c0,1.29,0,2.24-.02,2.85v.91l-.15.15c-.1.09-.17.16-.2.22-.04.06-.07.09-.11.09-.11,0-.16-.1-.13-.3,0-.14,0-.23-.05-.29-.04-.06-.09-.09-.15-.1s-.09-.04-.11-.09-.02-.29-.02-.73,0-.68-.05-.73c-.04-.04-.08-.07-.13-.09s-.1-.07-.16-.17c-.06-.09-.12-.16-.19-.19s-.12-.08-.15-.15-.08-.12-.14-.16c-.09-.05-.14-.1-.16-.15s-.03-.16-.03-.33c0-.21.02-.34.06-.39.04-.05.13-.07.28-.07.1,0,.16,0,.19-.02s.06-.06.11-.13c.07-.09.15-.15.22-.19s.12-.09.15-.14c.02-.05.03-.3.03-.75s0-.69.06-.72h.01Z"/>
  </g>
  <g>
    <g>
      <path class="cls-1" d="M165.79,56.89c-.23.04-.48,0-.69-.14-.39-.27-.47-.79-.17-1.17,5.64-7.06,10.28-14.04,13.82-20.78-1.91,1.03-4,1.98-6.16,2.81-.28.11-.59.08-.84-.08-.82-.52-1.32-1.18-1.43-1.93-.12-.75.15-1.53.8-2.3,1.34-1.6,4.69-3.18,7.15-3.37,1.67-.13,2.44.57,2.62,1.27.05.19.05.38.03.57.19,0,.37.07.52.19.3.24.4.63.23.98-3.72,7.62-8.87,15.56-15.29,23.61-.14.18-.35.29-.57.33h-.02ZM177.75,31.69c-2.02.36-4.41,1.64-5.24,2.63-.32.39-.47.73-.42,1.01.03.21.17.4.34.55,1.68-.66,3.3-1.4,4.82-2.19-.17-.42.05-.9.5-1.08.93-.38,1.27-.78,1.36-.95-.11-.04-.34-.09-.74-.06-.2.02-.41.04-.61.08h-.01Z"/>
      <path class="cls-1" d="M165.81,57.01c-.28.05-.55,0-.78-.16-.22-.15-.36-.37-.4-.63s.03-.51.2-.72c5.53-6.92,10.11-13.78,13.62-20.4-1.83.96-3.78,1.85-5.82,2.63-.31.12-.67.09-.95-.09-.85-.54-1.37-1.23-1.49-2.02s.15-1.6.82-2.4c1.37-1.63,4.75-3.23,7.24-3.42,1.74-.14,2.56.62,2.75,1.37.04.16.05.33.04.49.17.03.32.1.46.2.35.27.46.74.26,1.13-3.73,7.63-8.88,15.58-15.31,23.63-.16.2-.39.33-.65.38h0ZM179.05,34.5l-.19.36c-3.54,6.74-8.19,13.74-13.83,20.8-.12.15-.18.34-.15.53s.13.35.29.46c.33.22.84.15,1.09-.17,6.42-8.03,11.56-15.97,15.28-23.58.14-.29.06-.62-.19-.82-.13-.1-.28-.16-.45-.16h-.14l.02-.14c.03-.18.02-.35-.02-.52-.16-.65-.9-1.3-2.49-1.18-2.43.19-5.74,1.74-7.07,3.33-.62.74-.88,1.48-.77,2.2.11.71.59,1.35,1.38,1.84.21.13.48.15.73.06,2.16-.83,4.23-1.77,6.15-2.8l.36-.19v-.02ZM172.4,36.03l-.06-.05c-.22-.2-.34-.41-.38-.63-.05-.32.1-.69.45-1.11.81-.97,3.19-2.3,5.32-2.68.22-.04.43-.07.63-.08.45-.03.69.02.79.06l.13.05-.06.13c-.06.13-.36.58-1.42,1.01-.2.08-.34.23-.42.41-.07.17-.07.35,0,.51l.04.11-.1.05c-1.53.79-3.16,1.53-4.83,2.19l-.07.03h-.02ZM177.77,31.81c-2.07.36-4.39,1.66-5.17,2.59-.3.36-.43.67-.39.91.02.14.1.28.24.43,1.61-.64,3.17-1.34,4.64-2.1-.05-.19-.04-.4.04-.59.1-.25.3-.44.56-.54.72-.29,1.06-.59,1.2-.76-.11-.02-.28-.03-.52-.01-.19.02-.39.04-.6.08h0Z"/>
    </g>
    <g>
      <path class="cls-1" d="M122.72,36.48c-.36,0-.69-.2-.83-.52-.45-1.02-1.07-2.41-.2-3.77.87-1.36,3.29-2.3,5.9-2.3h0c1.34,0,2.84.34,3.75.99.32-.07.67.02.9.27.31.33.28.83-.05,1.14l-.02.02c0,.08-.02.16-.04.24.32.49,1.9,1.32,4.31,1.48,3.38.23,6.65-.67,8.38-1.67.42-.24.98-.12,1.24.27s.13.9-.29,1.15c-2.42,1.39-6.13,2.14-9.46,1.92-2.07-.14-4.5-.83-5.53-2.03-.18,0-.36-.07-.5-.17-2.04,1.14-4.52,2.14-7.29,2.95-.09.03-.18.04-.27.04h0ZM127.6,31.56h0c-2.35,0-3.96.87-4.36,1.49-.28.44-.22.94.02,1.57,2.44-.76,4.61-1.69,6.39-2.71-.49-.18-1.19-.34-2.05-.34h0Z"/>
      <path class="cls-1" d="M122.72,36.6c-.42,0-.79-.23-.95-.59-.46-1.05-1.09-2.47-.19-3.89.89-1.39,3.36-2.36,6.01-2.36,1.46,0,2.9.38,3.78.99.36-.06.72.05.97.31.17.18.26.42.25.67,0,.24-.12.47-.3.64,0,.05,0,.1-.03.15.35.43,1.84,1.22,4.19,1.38,3.35.22,6.59-.67,8.31-1.65.48-.27,1.11-.13,1.4.31.14.21.19.47.13.71-.06.26-.23.47-.46.61-2.43,1.4-6.17,2.15-9.53,1.93-1.86-.13-4.43-.73-5.58-2.04-.16-.02-.31-.07-.45-.15-2.06,1.14-4.5,2.12-7.25,2.93-.1.03-.2.04-.31.04h.01ZM127.6,30.01c-2.57,0-4.96.92-5.8,2.25-.83,1.3-.23,2.66.21,3.65.12.27.4.45.72.45.08,0,.16,0,.24-.03,2.77-.81,5.21-1.8,7.27-2.94l.07-.04.06.05c.12.09.28.14.43.15h.05l.04.04c1.02,1.19,3.47,1.85,5.45,1.99,3.31.23,6.99-.52,9.39-1.9.18-.1.3-.26.35-.45.04-.18,0-.36-.1-.52-.22-.33-.7-.44-1.07-.23-1.75,1-5.04,1.91-8.45,1.69-2.45-.17-4.05-1-4.41-1.54l-.03-.05v-.05c.03-.07.04-.15.05-.22v-.05l.04-.03s.02-.02.04-.03c.13-.12.21-.29.22-.47,0-.18-.06-.35-.18-.49-.19-.21-.49-.3-.78-.23h-.06l-.05-.02c-.82-.59-2.27-.97-3.68-.97h-.02ZM123.18,34.76l-.04-.11c-.2-.55-.35-1.14,0-1.68.41-.64,2.06-1.54,4.46-1.54h0c.95,0,1.66.19,2.09.35l.25.09-.23.13c-1.79,1.03-3.95,1.95-6.42,2.72l-.11.04h0ZM127.59,31.68c-2.3,0-3.87.83-4.25,1.43-.22.34-.22.73,0,1.34,2.29-.72,4.31-1.57,6.01-2.52-.41-.13-1-.25-1.74-.25h0Z"/>
    </g>
    <g>
      <path class="cls-1" d="M69.91,50.66c-.17,0-.35-.05-.51-.15-.41-.26-.52-.78-.24-1.16l8.15-11.11c.05-.18.17-.34.33-.45l.12-.16c.49-.66,1-1.36,1.58-2.06l4.67-6.33c.28-.38.84-.48,1.25-.22s.51.78.23,1.16l-.84,1.14c1.99-.83,5.12-1.31,6.72-.32.4.25,1.26.97.6,2.3-.61,1.25-1.97,2.4-3.84,3.36,3.09-.38,5.92-.83,9.76-1.43l2.48-.39c.49-.07.95.23,1.04.68.08.45-.25.88-.74.96l-2.48.39c-7.23,1.14-10.93,1.73-19.39,2.36l-8.15,11.04c-.17.24-.46.36-.74.36v.03ZM80.79,36.56l-.6.81c5.02-.81,9.13-2.68,10.14-4.73.08-.16.08-.23.08-.23-1.09-.65-4.21-.1-5.68.77-1.73,1.03-2.93,2.19-3.93,3.38h-.01Z"/>
      <path class="cls-1" d="M69.91,50.79c-.21,0-.4-.06-.57-.16-.23-.15-.39-.37-.43-.63-.05-.25,0-.5.16-.71l8.13-11.09c.06-.19.19-.36.35-.48l.13-.18c.48-.66.98-1.34,1.56-2.03l4.67-6.33c.32-.43.96-.54,1.42-.25.23.15.38.37.43.63.05.25,0,.5-.17.71l-.59.8c2.1-.77,4.94-1.07,6.43-.15.43.27,1.35,1.04.65,2.46-.55,1.11-1.68,2.17-3.3,3.1,2.79-.36,5.41-.77,8.94-1.33l2.63-.41c.55-.09,1.08.27,1.18.78.04.24,0,.49-.16.69-.16.22-.41.37-.68.41l-2.48.39c-7.27,1.15-10.93,1.72-19.34,2.36l-8.12,11c-.19.26-.51.41-.84.41h0ZM84.75,29.02c-.25,0-.49.11-.64.31l-4.67,6.33c-.57.69-1.07,1.37-1.55,2.02l-.17.23c-.14.09-.24.23-.28.38l-.02.04-8.15,11.11c-.11.15-.15.33-.12.52.04.19.15.35.32.46.34.22.85.13,1.08-.19l8.19-11.09h.06c8.44-.64,12.09-1.22,19.36-2.36l2.49-.39c.21-.03.4-.15.52-.31.11-.15.15-.33.11-.5-.07-.38-.46-.65-.89-.58l-2.63.41c-3.81.6-6.56,1.04-9.61,1.41l-.7.09.63-.32c1.89-.97,3.2-2.11,3.78-3.3.59-1.2-.1-1.86-.56-2.14-1.52-.94-4.54-.53-6.6.33l-.42.17,1.11-1.51c.11-.15.16-.33.12-.52-.04-.19-.15-.35-.32-.46-.13-.09-.29-.13-.44-.13h0ZM79.91,37.54l.79-1.06c1.2-1.43,2.46-2.51,3.97-3.41,1.52-.9,4.68-1.45,5.81-.77l.06.04v.07s0,.12-.09.28c-1.01,2.05-5.12,3.98-10.23,4.8l-.3.05h0ZM80.89,36.64l-.41.56c4.89-.83,8.79-2.67,9.74-4.62.02-.04.04-.08.05-.11-1.12-.55-4.07,0-5.48.82-1.48.88-2.72,1.94-3.9,3.35h0Z"/>
    </g>
    <g>
      <path class="cls-1" d="M55.75,39.97c-.27,0-.54-.12-.71-.32-.51-.6-.7-1.29-.55-1.99.33-1.59,2.25-2.93,5.04-4.44,1.16-.63,2.6-1.41,4.64-1.78,1.74-.32,4.78-.29,6.08.76.54.44.69,1.07.37,1.64-.12.21-.3.41-.52.58,1.72,1.07,5.89,1.75,9.25,1.08.48-.1.96.19,1.07.64.1.45-.21.89-.69.99-3.56.71-8.91.08-11.12-1.69-3.39,1.84-7.74,3.39-12.62,4.51-.07.02-.14.02-.21.02h-.03ZM66.26,32.92c-.57,0-1.18.05-1.75.15-1.74.31-2.98.99-4.07,1.58-1.08.59-3.94,2.14-4.19,3.32,0,.05-.02.12,0,.19,3.69-.88,7.03-2.02,9.82-3.34-.19-.2-.28-.48-.21-.76.11-.45.59-.72,1.08-.62.68.15,1.38,0,1.78-.18-.54-.21-1.45-.34-2.45-.34Z"/>
      <path class="cls-1" d="M55.75,40.09c-.32,0-.61-.13-.81-.37-.53-.63-.73-1.36-.58-2.09.34-1.64,2.29-3,5.1-4.53,1.17-.63,2.62-1.42,4.67-1.79,1.76-.32,4.85-.29,6.18.79.6.48.75,1.17.4,1.8-.1.18-.24.35-.41.5,1.75.98,5.77,1.62,9,.98.55-.11,1.09.22,1.21.74.05.24,0,.49-.12.7-.15.23-.39.39-.66.44-3.42.67-8.8.15-11.16-1.67-3.39,1.83-7.74,3.38-12.58,4.48-.08.02-.17.03-.24.03h0ZM66.3,31.38c-.77,0-1.52.07-2.12.18-2.02.37-3.44,1.14-4.59,1.76-2.76,1.5-4.66,2.82-4.98,4.36-.14.66.05,1.31.53,1.88.18.22.48.33.8.26,4.86-1.11,9.21-2.66,12.59-4.5l.07-.04.06.05c2.27,1.82,7.63,2.34,11.02,1.67.21-.04.39-.16.5-.33.1-.15.13-.33.09-.51-.09-.38-.5-.63-.92-.55-3.44.68-7.6-.02-9.34-1.1l-.15-.1.14-.11c.22-.17.38-.35.49-.54.29-.51.16-1.08-.34-1.48-.83-.67-2.4-.91-3.86-.91h0ZM56.13,38.32v-.14c-.02-.08,0-.15,0-.23.23-1.09,2.39-2.39,4.25-3.4,1.11-.6,2.35-1.28,4.11-1.6.54-.1,1.16-.15,1.77-.15.99,0,1.93.13,2.5.35l.28.11-.27.12c-.42.18-1.15.34-1.86.19-.43-.1-.84.14-.93.53-.06.23,0,.46.18.64l.12.13-.16.08c-2.82,1.33-6.13,2.46-9.84,3.35l-.14.03h0ZM66.26,33.05c-.6,0-1.2.05-1.73.15-1.72.31-2.95.98-4.03,1.57-.97.53-3.9,2.12-4.13,3.24q-.15.75,0,0c3.56-.86,6.75-1.95,9.48-3.22-.15-.22-.2-.49-.13-.74.13-.52.67-.83,1.23-.71.48.11.98.05,1.36-.05-.54-.14-1.29-.23-2.06-.23h.01Z"/>
    </g>
    <g>
      <path class="cls-1" d="M1.16,46.99c-.1,0-.2-.02-.3-.05-.27-.09-.47-.29-.56-.54-.94-2.76,2.03-5.16,4.34-6.72,3.21-2.17,6.9-4.09,10.95-5.75,2.79-2.76,5.2-5.62,7.17-8.55.63-.93.77-1.41.54-1.76-.36-.53-1.84-1.03-3.26-.9-1.45.13-2.25.82-2.25,1.13,0,.46-.41.82-.9.82h-.01c-.5,0-.89-.38-.89-.84.02-1.37,1.68-2.56,3.87-2.77,2.04-.19,4.18.53,4.96,1.67.93,1.36-.02,2.77-.53,3.53-1.44,2.13-3.07,4.21-4.9,6.23,6.24-2.17,13.2-3.72,20.53-4.56,2.06-.23,4.71-.24,5.68,1.06.78,1.04-.07,2.13-.43,2.6l-6.99,9.03c-.34.44-.46.91-.37,1.1.08.16.44.23.59.25.52.07,1.09-.06,1.73-.21l14.48-3.53c.47-.12.97.15,1.1.59s-.16.9-.64,1.02l-14.48,3.53c-.8.19-1.58.36-2.43.25-1.25-.16-1.77-.76-1.99-1.24-.36-.78-.15-1.8.56-2.72l6.99-9.03c.34-.44.41-.62.41-.69-.21-.28-1.49-.63-3.98-.35-8.42.96-16.52,2.96-23.49,5.75-4.19,4.11-9.21,7.95-15,11.49-.15.09-.32.14-.49.14v.02ZM11.54,37.65c-2.1,1.05-4.06,2.18-5.84,3.38-1.99,1.34-3.18,2.51-3.6,3.53,3.42-2.17,6.58-4.49,9.44-6.92h0Z"/>
      <path class="cls-1" d="M1.16,47.12c-.12,0-.23-.02-.34-.05-.3-.1-.54-.33-.64-.61-.96-2.84,2.05-5.28,4.39-6.86,3.19-2.15,6.87-4.08,10.95-5.75,2.78-2.75,5.19-5.62,7.14-8.51.68-1,.7-1.37.54-1.62-.34-.49-1.78-.97-3.14-.84-1.46.14-2.14.82-2.14,1.01,0,.52-.47.95-1.02.95-.29,0-.54-.11-.73-.29s-.3-.43-.29-.68c.02-1.44,1.73-2.68,3.99-2.89,2.1-.2,4.27.54,5.07,1.72.98,1.43,0,2.89-.53,3.67-1.35,2-2.89,3.98-4.59,5.89,6.2-2.11,12.96-3.59,20.1-4.41,2.09-.24,4.79-.23,5.8,1.11.83,1.12-.05,2.26-.43,2.75l-6.99,9.03c-.33.42-.42.83-.35.97.03.06.21.14.49.17.49.07,1.05-.06,1.68-.21l14.48-3.53c.55-.13,1.1.17,1.25.68.07.24.04.49-.09.7-.13.23-.37.4-.64.47l-14.48,3.53c-.81.2-1.61.37-2.48.26-1.3-.17-1.86-.81-2.09-1.31-.38-.83-.17-1.89.58-2.85l6.99-9.03c.27-.35.35-.51.37-.57-.26-.22-1.46-.54-3.83-.26-8.31.94-16.41,2.92-23.43,5.73-4.19,4.1-9.24,7.97-15.01,11.49-.16.1-.36.16-.56.16l-.02-.02ZM20.53,22.6c1.33,0,2.54.47,2.88.97.27.4.13.91-.54,1.9-1.96,2.91-4.38,5.79-7.19,8.57l-.04.03c-4.08,1.66-7.75,3.59-10.93,5.73-2.28,1.54-5.2,3.89-4.3,6.58.07.21.25.38.48.46.23.08.49.05.69-.08,5.76-3.52,10.8-7.38,14.98-11.48l.04-.03c7.05-2.82,15.18-4.81,23.52-5.76,2.56-.29,3.85.08,4.1.39l.02.03v.04c0,.09-.04.26-.43.77l-6.99,9.03c-.68.89-.89,1.86-.55,2.6.21.45.71,1.02,1.9,1.17.82.11,1.57-.05,2.39-.25l14.48-3.53c.21-.05.38-.18.48-.35.09-.16.11-.34.07-.51-.11-.38-.54-.61-.95-.51l-14.48,3.53c-.66.16-1.24.28-1.77.22-.26-.03-.59-.12-.69-.32-.12-.26.04-.78.38-1.23l6.99-9.03c.37-.48,1.14-1.48.43-2.45-.93-1.25-3.54-1.24-5.57-1.01-7.3.83-14.2,2.36-20.51,4.55l-.46.16.33-.36c1.81-2.01,3.46-4.1,4.89-6.22.49-.73,1.41-2.1.53-3.39-.75-1.1-2.83-1.79-4.84-1.61-2.12.2-3.74,1.33-3.76,2.64,0,.19.07.36.22.5.14.14.34.21.55.22.43,0,.78-.31.78-.7,0-.43.91-1.12,2.37-1.25.17-.02.33-.02.5-.02h0ZM1.84,44.89l.15-.37c.43-1.05,1.62-2.22,3.65-3.59,1.77-1.19,3.74-2.33,5.85-3.39l.93-.47-.79.67c-2.86,2.42-6.04,4.75-9.45,6.93l-.33.21h-.01ZM10.6,38.28c-1.73.91-3.35,1.87-4.83,2.87-1.73,1.17-2.83,2.18-3.36,3.08,2.92-1.88,5.67-3.87,8.19-5.94h0Z"/>
    </g>
    <g>
      <path class="cls-1" d="M155.16,41.34c-.27,0-.55-.02-.83-.08-1.44-.27-2.05-1.05-2.31-1.66-.63-1.49.22-3.39,1.13-4.56l8.84-11.34c.29-.37.85-.46,1.25-.19.4.27.49.79.2,1.16l-6.93,8.89c1.29-.71,2.78-1.24,4.35-1.53.63-.12,1.45-.22,2.22,0,.78.22,1.34.71,1.57,1.37.36,1.02-.13,2.16-.71,2.88-1.42,1.78-3.48,3.29-5.96,4.36-.73.31-1.75.69-2.85.69h.03ZM153.72,37.74c-.14.49-.15.94-.02,1.26.09.21.29.5.99.63.68.13,1.49-.03,2.56-.49,2.2-.95,4.03-2.28,5.27-3.84.37-.46.56-1.05.44-1.37-.02-.06-.07-.2-.39-.29-.39-.11-.92-.04-1.34.04-2.85.53-5.32,1.91-6.6,3.7-.21.28-.57.41-.91.36Z"/>
      <path class="cls-1" d="M155.16,41.47c-.29,0-.58-.03-.85-.08-1.5-.28-2.13-1.1-2.4-1.74-.65-1.54.21-3.49,1.15-4.69l8.84-11.34c.33-.42.97-.52,1.42-.21.23.15.37.38.42.64.04.25-.02.5-.18.71l-6.58,8.44c1.19-.59,2.52-1.02,3.88-1.28.64-.12,1.48-.23,2.28,0,.82.23,1.41.75,1.66,1.44.38,1.07-.13,2.25-.73,3-1.44,1.8-3.51,3.32-6,4.39-.69.3-1.75.7-2.9.7v.02ZM162.73,23.49c-.24,0-.48.1-.63.3l-8.84,11.34c-.89,1.14-1.72,2.99-1.11,4.43.25.58.83,1.33,2.21,1.59.26.05.53.07.8.07,1.1,0,2.13-.39,2.8-.68,2.46-1.06,4.5-2.56,5.91-4.32.56-.7,1.03-1.79.69-2.76-.22-.62-.75-1.08-1.49-1.29-.75-.21-1.55-.11-2.16,0-1.53.28-3.02.81-4.32,1.51l-.53.29,7.31-9.37c.12-.15.17-.33.14-.51-.03-.19-.14-.36-.31-.47-.14-.09-.3-.14-.46-.14h0ZM155.16,39.8c-.17,0-.34,0-.5-.04-.76-.14-.98-.47-1.08-.71-.14-.34-.14-.81,0-1.34l.03-.11.11.02c.3.05.61-.07.79-.31,1.31-1.82,3.8-3.22,6.68-3.75.44-.08.99-.16,1.4-.04.35.1.44.26.48.37.13.36-.07.99-.46,1.49-1.26,1.57-3.1,2.91-5.32,3.87-.85.37-1.54.55-2.14.55h0ZM153.82,37.88c-.11.43-.11.81,0,1.08.08.18.25.44.9.56.65.12,1.44-.03,2.49-.48,2.19-.94,3.99-2.26,5.22-3.8.34-.42.52-.97.42-1.25,0-.04-.05-.14-.31-.21-.36-.1-.88-.03-1.29.04-2.82.52-5.25,1.89-6.52,3.65-.2.28-.56.43-.92.42h0Z"/>
    </g>
    <g>
      <path class="cls-1" d="M191.74,46.65c-.17,0-.35-.05-.51-.15-.41-.26-.51-.78-.23-1.16l2.1-2.84c.28-.38.84-.48,1.25-.22s.51.78.23,1.16l-2.1,2.84c-.17.24-.46.36-.74.36h0Z"/>
      <path class="cls-1" d="M191.74,46.77c-.2,0-.4-.06-.57-.17-.23-.15-.38-.37-.43-.63-.05-.25.01-.5.17-.71l2.1-2.84c.32-.43.96-.54,1.42-.25.23.15.38.37.43.63.05.25-.01.5-.17.71l-2.1,2.84c-.19.26-.51.41-.84.41h-.01ZM193.83,42.26c-.25,0-.49.11-.64.31l-2.1,2.84c-.11.15-.16.33-.12.52s.15.35.32.46c.34.22.85.13,1.08-.19l2.1-2.84c.11-.15.16-.34.12-.52-.04-.19-.15-.35-.32-.46-.13-.09-.29-.13-.44-.13h0Z"/>
    </g>
    <g>
      <path class="cls-1" d="M91.54,50.49c-.17,0-.35-.04-.51-.13-.42-.25-.54-.76-.27-1.15l7.81-11.35c.05-.18.16-.34.31-.46l.11-.16c.47-.68.96-1.39,1.52-2.1l4.48-6.47c.27-.39.83-.5,1.24-.25.42.25.54.76.27,1.15l-.81,1.17c1.97-.89,5.08-1.46,6.71-.52.41.24,1.28.93.67,2.28-.58,1.26-1.89,2.46-3.74,3.47,3.07-.47,5.9-1,9.71-1.72l2.47-.46c.49-.09.96.2,1.06.65.1.45-.22.89-.71.98l-2.47.46c-7.19,1.35-10.88,2.05-19.31,2.94l-7.82,11.28c-.17.24-.44.38-.73.38h0ZM102,36.07l-.57.83c5-.96,9.05-2.95,9.99-5.03.08-.17.07-.23.07-.23-1.11-.62-4.21.02-5.66.94-1.7,1.08-2.87,2.27-3.83,3.49Z"/>
      <path class="cls-1" d="M91.54,50.61c-.2,0-.4-.04-.58-.15-.24-.14-.4-.36-.45-.61s0-.5.14-.72l7.8-11.33c.05-.19.17-.36.34-.49l.13-.19c.46-.67.94-1.37,1.5-2.07l4.48-6.46c.31-.44.94-.57,1.41-.29.23.14.4.36.45.61s0,.5-.14.71l-.56.81c2.08-.83,4.91-1.22,6.42-.34.44.25,1.38,1,.72,2.44-.51,1.13-1.62,2.22-3.21,3.2,2.78-.44,5.39-.93,8.9-1.59l2.62-.49c.55-.11,1.09.24,1.2.75.05.24,0,.49-.14.7-.15.22-.39.38-.67.43l-2.47.46c-7.24,1.36-10.87,2.05-19.26,2.93l-7.79,11.23c-.18.26-.49.43-.83.44v.02ZM105.73,28.41c-.25,0-.49.12-.63.33l-4.48,6.47c-.55.71-1.03,1.4-1.49,2.06l-.17.23c-.13.1-.23.24-.27.39l-.02.04-7.81,11.35c-.11.15-.14.34-.1.52.04.19.16.35.34.45.35.21.85.1,1.07-.22l7.86-11.33h.06c8.42-.89,12.05-1.58,19.28-2.94l2.48-.47c.21-.04.4-.16.51-.33.1-.15.14-.33.1-.51-.08-.38-.48-.64-.91-.55l-2.61.49c-3.79.71-6.53,1.23-9.57,1.7l-.7.11.62-.34c1.86-1.02,3.13-2.21,3.68-3.41.55-1.22-.15-1.85-.62-2.13-1.54-.9-4.55-.4-6.59.52l-.41.19,1.07-1.54c.11-.15.15-.34.11-.52-.04-.19-.16-.35-.34-.45-.14-.08-.29-.12-.44-.11h-.02ZM101.15,37.07l.75-1.09c1.16-1.47,2.39-2.59,3.86-3.52,1.5-.95,4.63-1.59,5.79-.94l.06.03v.07s0,.12-.08.28c-.95,2.08-5,4.13-10.08,5.1l-.3.06h0ZM102.1,36.14l-.4.57c4.87-.98,8.7-2.93,9.6-4.9.02-.05.03-.08.04-.11-1.14-.52-4.07.11-5.45.98-1.45.92-2.66,2.02-3.8,3.46h0Z"/>
    </g>
  </g>
</svg>